<svg width="40" height="36" viewBox="0 0 40 36" fill="none" xmlns="http://www.w3.org/2000/svg">
<path d="M12.0549 30.4479C12.2971 30.1739 12.6929 30.1725 12.9364 30.445C13.1799 30.7175 13.1812 31.1629 12.939 31.4367L9.81388 34.9554C9.57165 35.2295 9.17583 35.2308 8.9323 34.9584C8.80988 34.8206 8.74871 34.6405 8.74871 34.4604H8.74609V23.207C8.74609 22.9418 8.87629 22.7104 9.06897 22.5901L31.5269 5.74526C31.812 5.52989 32.2001 5.61496 32.3916 5.93717C32.583 6.25798 32.5061 6.69453 32.221 6.90989L9.99747 23.5805V32.7654L12.0549 30.4479Z" fill="#FEF9F9"/>
<path d="M11.4298 26.5117C11.1876 26.2377 11.1889 25.7925 11.4324 25.5201C11.676 25.2476 12.0718 25.2489 12.3139 25.5229L19.2869 33.3689L38.7498 1.89111V1.63618L1.80965 13.704L9.81256 22.7089C10.0561 22.9828 10.0561 23.4295 9.81256 23.7035C9.56903 23.9774 9.17191 23.9774 8.92844 23.7035L0.18075 13.8593L0.182057 13.8579C0.110423 13.7758 0.0544752 13.6762 0.024475 13.5576C-0.0705581 13.1869 0.119573 12.7973 0.448987 12.6889L39.1483 0.046912C39.2187 0.0176472 39.2941 0 39.3749 0C39.72 0 40 0.315001 40 0.703165V2.10942H39.9986C39.9986 2.24861 39.9621 2.3892 39.8866 2.51082L19.8859 34.86L19.8846 34.8586C19.8637 34.8923 19.839 34.9259 19.8116 34.9551C19.5681 35.2277 19.1723 35.2262 18.9301 34.9522L11.4298 26.5117Z" fill="#FEF9F9"/>
</svg>
