<svg width="370" height="186" viewBox="0 0 370 186" fill="none" xmlns="http://www.w3.org/2000/svg">
<rect x="3" width="141" height="124" fill="#3F3D56"/>
<rect x="110" y="62" width="141" height="124" fill="#FF0F7E"/>
<rect x="229" width="141" height="124" fill="#B056B8" fill-opacity="0.61"/>
<path d="M0 123.889C44 108.389 78 123.889 78 123.889H0Z" fill="#F2E4E4"/>
<path d="M144 -2.91533e-05C100 15.4999 66 -2.91533e-05 66 -2.91533e-05L144 -2.91533e-05Z" fill="#F8EFEF"/>
<path d="M370 -2.91533e-05C326 15.4999 292 -2.91533e-05 292 -2.91533e-05L370 -2.91533e-05Z" fill="white"/>
<path d="M229 123.889C273 108.389 307 123.889 307 123.889H229Z" fill="white"/>
<ellipse cx="118" cy="34" rx="13" ry="11" fill="#FF6584"/>
<ellipse cx="110" cy="48" rx="13" ry="11" fill="#461E5E" fill-opacity="0.45"/>
<ellipse cx="131" cy="45" rx="13" ry="11" fill="white"/>
<ellipse cx="331" cy="112" rx="10" ry="8" fill="#1B0F33"/>
<ellipse cx="251" cy="20" rx="10" ry="8" fill="#1B0F33"/>
<g clip-path="url(#clip0)">
<path d="M86.868 34.269H23.353V98.426H86.868V34.269Z" fill="#C89998"/>
<path d="M86.867 98.426H59.822L46.396 81.266L50.116 63.637L50.402 62.92L50.77 62.518L50.755 61.25L50.823 60.447L50.832 57.191L51.474 49.68L55.11 53.996L56.064 53.913L56.484 53.503L57.086 53.241L59.514 52.535L58.768 49.68L60.996 50.367L86.867 83.048V98.426Z" fill="#746161" fill-opacity="0.43"/>
<path d="M54.6489 66.8019C55.5159 66.6819 56.3499 66.55 56.7269 66.469L57.1609 63.3529C57.1609 63.3489 57.1649 63.3449 57.1659 63.3399C57.1669 63.3339 57.1649 63.3289 57.1659 63.3239L57.4809 61.8719C56.8239 62.2119 56.1279 63.0829 55.8719 63.4669L54.6499 66.7369V66.8019H54.6489Z" fill="#F9F7FC"/>
<path d="M54.6489 64.628L55.0089 63.663H54.6489V64.628Z" fill="#F9F7FC"/>
<path d="M62.0979 70.835C62.0979 70.835 61.2589 65.107 59.8259 62.245C59.8259 62.245 59.9289 61.998 59.7009 61.715C59.7009 61.715 59.6919 61.652 59.6769 61.554L59.5149 61.615L60.1559 69.002C60.1679 69.141 60.1029 69.272 59.9919 69.346L59.8979 69.407C59.9309 69.454 59.9579 69.507 59.9649 69.569C60.0479 70.2 60.1999 70.733 60.3609 71.298C60.5879 72.101 60.8219 72.929 60.8629 74.068C60.8649 74.131 61.0469 80.012 61.7089 82.051L63.8259 81.702C63.8239 81.699 62.6239 74.443 62.0979 70.835Z" fill="#F9F7FC"/>
<path d="M59.4 68.8459L58.775 61.6099C58.579 61.5469 58.404 61.5879 58.288 61.6289L57.889 63.4679L57.094 70.3359L57.961 69.8089L59.4 68.8459Z" fill="#F9F7FC"/>
<path d="M50.7761 61.158C50.7071 61.45 50.6221 61.916 50.5961 62.553C50.5961 62.553 50.5291 62.637 50.4021 62.92H55.3511C55.5801 62.596 56.1071 61.915 56.7521 61.456C55.2701 61.268 52.6271 61.186 50.8751 61.181C50.8391 61.181 50.8081 61.168 50.7761 61.158Z" fill="#F9F7FC"/>
<path d="M57.029 60.751C57.414 60.809 57.738 60.875 57.961 60.955C58.141 60.882 58.438 60.802 58.772 60.85L59.419 60.484C59.481 60.45 59.546 60.442 59.611 60.444C59.611 60.439 59.611 60.431 59.611 60.426L60.189 57.12C60.189 57.12 60.575 55.748 60.749 55.626C60.749 55.626 60.05 52.7 60.995 50.367L60.627 50.013L58.768 49.679C58.768 49.679 58.897 50.317 58.803 50.756C58.803 50.756 58.612 51.818 58.383 52.084C58.227 52.266 58.003 52.866 57.086 53.24C57.169 53.312 57.225 53.415 57.219 53.534C57.217 53.587 57 58.484 57.029 60.751Z" fill="#F9F7FC"/>
<path d="M56.8301 71.3649C56.7711 71.3999 56.7051 71.4189 56.6411 71.4189C56.5711 71.4189 56.5011 71.3979 56.4401 71.3589C56.3211 71.2829 56.2581 71.1439 56.2741 71.0039L56.7121 67.2289C56.1621 67.3379 55.3041 67.4619 54.6501 67.5519V70.7639C53.6781 78.8479 54.2761 82.2949 54.2831 82.3279C54.2961 82.3979 54.2831 82.4669 54.2591 82.5289C54.2661 82.5329 54.2761 82.5369 54.2831 82.5419V82.9129C54.2831 82.9129 56.0631 83.1229 56.8311 82.9429C57.0741 80.9019 56.8951 73.5729 56.8341 71.3639L56.8301 71.3649Z" fill="#F9F7FC"/>
<path d="M53.9149 67.598C53.8609 67.575 53.8109 67.538 53.7719 67.489C53.6919 67.386 53.6699 67.25 53.7159 67.127L53.9129 66.599L53.9119 63.665H52.0659C52.0649 63.671 52.0679 63.676 52.0669 63.681L51.4369 67.923C50.9549 72.51 50.3609 82.321 50.3549 82.42C50.3539 82.429 50.3489 82.437 50.3479 82.442C51.0159 82.52 52.4129 82.647 52.8339 82.397C52.8339 82.397 53.1669 82.337 53.5379 82.352C53.4389 81.711 53.0089 78.216 53.9129 70.721L53.9149 67.598Z" fill="#F9F7FC"/>
<path d="M59.6519 71.5009C59.5049 70.9799 59.3569 70.4379 59.2649 69.8229L58.1519 70.5539L57.5559 70.9189C57.5969 72.3249 57.8079 79.8859 57.5989 82.6339C57.9719 82.5599 58.4779 82.4779 58.6199 82.5319L61.0129 82.2999C60.3119 80.1599 60.1319 74.3369 60.1239 74.0859C60.0889 73.0419 59.8749 72.2929 59.6519 71.5009Z" fill="#F9F7FC"/>
<path d="M51.327 63.663H50.246C50.2 63.663 50.157 63.652 50.116 63.637C49.672 64.867 48.924 67.419 47.889 72.591C47.889 72.591 46.77 80.132 46.396 81.266C46.396 81.266 46.77 81.594 47.655 81.737C48.313 81.841 49.174 81.764 49.653 81.874C49.78 79.808 50.286 71.849 50.708 67.829L51.327 63.663Z" fill="#F9F7FC"/>
<path d="M49.9191 55.459C49.9191 55.459 50.2221 56.143 50.4551 57.979L50.8241 60.448C50.8411 60.445 50.8571 60.437 50.8771 60.437H50.8781C51.2791 60.439 52.2991 60.447 53.4571 60.487C53.5691 58.891 53.4461 53.396 53.4441 53.34C53.4431 53.268 53.4651 53.203 53.4991 53.146C52.7271 52.745 52.4011 52.191 52.4011 52.191C52.4011 52.191 51.6331 51.182 51.4751 49.681L50.1481 50.086C50.1481 50.086 49.6751 49.909 49.3611 50.368C49.3601 50.367 50.5501 51.428 49.9191 55.459Z" fill="#F9F7FC"/>
<path d="M54.1919 60.516C54.9129 60.549 55.6449 60.595 56.2919 60.662C56.2699 58.328 56.4799 53.554 56.4839 53.504C56.4839 53.475 56.4969 53.449 56.5039 53.422C56.1899 53.491 55.8179 53.539 55.3799 53.551C54.9159 53.564 54.5259 53.497 54.1809 53.402C54.1949 54.078 54.2969 58.922 54.1919 60.516ZM55.2699 60.088C54.9739 60.088 54.7339 59.845 54.7339 59.546C54.7339 59.251 54.9739 59.009 55.2699 59.009C55.5639 59.009 55.8049 59.251 55.8049 59.546C55.8049 59.845 55.5639 60.088 55.2699 60.088ZM55.2699 54.598C55.5639 54.598 55.8049 54.841 55.8049 55.137C55.8049 55.437 55.5649 55.68 55.2699 55.68C54.9739 55.68 54.7339 55.437 54.7339 55.137C54.7339 54.841 54.9739 54.598 55.2699 54.598ZM55.2689 56.639C55.5639 56.639 55.8049 56.881 55.8049 57.179C55.8049 57.477 55.5649 57.719 55.2689 57.719C54.9739 57.719 54.7339 57.477 54.7339 57.179C54.7339 56.881 54.9739 56.639 55.2689 56.639Z" fill="#F9F7FC"/>
</g>
<path d="M320.515 34H257V98.157H320.515V34Z" fill="#FCF3FD"/>
<path d="M320.514 98.157H293.147L280.479 81.493L282.783 66.063L282.138 56.683L282.211 55.932L282.675 54.368L283.062 52.341L283.446 51.571L288.218 51.346H288.953L293.784 49.773L320.514 83.28V98.157Z" fill="#1A1918" fill-opacity="0.87"/>
<path d="M294.308 51.511C294.24 51.36 294.176 51.209 294.101 51.064L293.784 49.773C293.784 49.773 292.611 51.016 288.951 51.329C288.951 51.335 288.953 51.341 288.953 51.347V53.346C288.956 53.375 288.964 53.447 288.975 53.552C290.84 53.217 293.626 52.433 294.308 51.511ZM289.901 52.98C289.698 52.98 289.484 52.763 289.484 52.558C289.484 52.352 289.698 52.137 289.901 52.137C290.105 52.137 290.319 52.352 290.319 52.558C290.32 52.763 290.105 52.98 289.901 52.98Z" fill="#FA778F"/>
<path d="M292.659 53.392C292.663 53.413 293.101 55.344 294.155 55.898C294.509 56.085 294.891 56.088 295.327 55.907C295.359 55.893 295.394 55.89 295.43 55.886C295.311 54.712 295.064 53.461 294.617 52.257C294.142 52.688 293.42 53.051 292.638 53.345C292.643 53.362 292.653 53.376 292.659 53.392Z" fill="#FA778F"/>
<path d="M289.042 54.296C289.122 55.237 289.228 56.701 289.241 57.981C289.458 57.924 289.637 57.815 289.773 57.641C290.42 56.818 290.159 54.871 290.002 54.192C289.996 54.163 289.998 54.133 290 54.105C289.597 54.193 289.265 54.257 289.042 54.296Z" fill="#FA778F"/>
<path d="M295.612 66.67C295.612 66.67 294.999 64.068 295.279 61.129C295.279 61.129 295.643 59.147 295.488 56.633C295.225 56.729 294.967 56.785 294.717 56.785C294.403 56.785 294.1 56.71 293.813 56.557C292.52 55.875 292.008 53.856 291.945 53.585C291.513 53.724 291.083 53.844 290.683 53.943C290.696 53.968 290.711 53.993 290.719 54.023C290.744 54.137 291.347 56.832 290.349 58.102C290.068 58.458 289.692 58.665 289.238 58.733C289.226 59.187 289.199 59.592 289.144 59.9C289.132 59.977 289.092 60.04 289.041 60.094C289.508 61.465 290.49 64.671 290.911 68.476C290.911 68.476 291.974 72.492 292.087 75.658C292.087 75.658 292.031 81.481 293.095 82.219C293.095 82.219 295.116 82.926 297.238 81.426C297.238 81.426 297.517 71.252 295.612 66.67Z" fill="#FA778F"/>
<path d="M285.705 53.833C285.579 54.268 285.024 55.942 283.803 56.566C283.494 56.724 283.169 56.802 282.83 56.802C282.606 56.802 282.374 56.754 282.138 56.683C282.036 57.92 282.006 59.396 282.105 61.185C282.105 61.185 282.575 65.03 282.041 66.689C282.041 66.689 281.424 68.138 281.368 70.343C281.368 70.343 280.583 73.03 280.669 74.923C280.669 74.923 280.107 77.524 280.303 81.341C280.303 81.341 281.556 82.677 284.642 82.218C284.642 82.218 284.795 81.863 284.857 80.81C284.857 80.81 284.986 80.044 285.315 75.093L286.378 68.873C286.378 68.873 287.94 62.721 288.437 59.631C288.612 58.382 288.423 55.704 288.302 54.299C287.252 54.196 286.395 54.031 285.705 53.833Z" fill="#FA778F"/>
<path d="M288.218 53.546V51.347C288.218 51.337 288.222 51.329 288.223 51.32C287.278 51.242 285.305 50.941 284.231 49.774L283.744 51.161C283.744 51.161 283.623 51.282 283.445 51.572C283.454 51.591 283.468 51.606 283.475 51.626C283.493 51.67 284.099 53.097 288.218 53.546Z" fill="#FA778F"/>
<path d="M283.472 55.901C284.341 55.459 284.857 54.139 285.004 53.602C283.906 53.188 283.348 52.702 283.061 52.34C282.748 53.081 282.408 54.231 282.211 55.932C282.676 56.102 283.088 56.096 283.472 55.901Z" fill="#FA778F"/>
<g clip-path="url(#clip1)">
<path d="M212.285 98.26H148.771V162.417H212.285V98.26Z" fill="#53305F"/>
<path d="M175.703 146.676L187.723 162.417H212.285V149.014L186.932 116.975L184.621 116.335H176.476L178.58 129.228L177.919 129.802L175.438 142.482L175.703 146.676Z" fill="#2F1822"/>
<path d="M180.493 124.141C180.493 124.141 182.146 125.41 184.242 125.665L184.57 125.712C186.976 123.621 187.388 119.508 187.388 119.508C187.247 111.975 179.251 113.054 179.251 113.054C170.315 113.482 173.584 122.9 173.584 122.9C176.114 129.273 183.401 130.477 183.401 130.477C185.13 128.919 184.944 126.58 184.944 126.58C176.378 125.086 177.081 119.741 177.081 119.741C176.921 116.003 179.749 116.21 179.749 116.21C183.613 115.698 183.478 119.323 183.478 119.323C183.641 121.305 181.625 123.267 180.493 124.141Z" fill="#FFFCFD"/>
<path d="M183.082 139.786C183.08 139.758 183.066 139.73 183.059 139.704C183.059 139.704 181.905 134.288 181.957 130.87L181.436 130.67C179.923 130.268 177.586 128.966 177.586 128.966C177.586 128.966 173.821 132.817 175.105 141.647C175.071 141.703 175.046 141.762 175.044 141.831C175.018 142.616 174.965 145.227 175.37 145.842C175.442 145.949 175.557 146.007 175.676 146.007C175.746 146.007 175.816 145.986 175.88 145.944C176.049 145.832 176.095 145.598 175.984 145.43C175.8 145.149 175.731 143.354 175.78 141.856C175.78 141.85 175.778 141.848 175.778 141.842H176.881C176.881 141.856 176.876 141.865 176.877 141.879C176.931 142.434 177.223 145.233 177.625 145.84C177.698 145.947 177.813 146.005 177.931 146.005C178.002 146.005 178.074 145.984 178.135 145.943C178.306 145.829 178.351 145.597 178.238 145.427C178.039 145.124 177.765 143.374 177.613 141.84H180.048C180.118 142.54 180.402 145.134 180.787 145.718C180.857 145.824 180.975 145.884 181.094 145.884C181.164 145.884 181.235 145.863 181.297 145.821C181.467 145.707 181.514 145.476 181.401 145.304C181.201 145 180.924 143.224 180.774 141.681C180.77 141.634 180.754 141.595 180.735 141.556V139.81L182.365 139.734C182.354 139.775 182.348 139.818 182.352 139.859C182.408 140.414 182.699 143.213 183.098 143.82C183.168 143.929 183.286 143.987 183.405 143.987C183.475 143.987 183.547 143.966 183.608 143.924C183.778 143.811 183.824 143.579 183.712 143.409C183.51 143.107 183.234 141.33 183.082 139.786Z" fill="#FFFCFD"/>
</g>
<path d="M229 167L239.392 181.25H218.608L229 167Z" fill="#FFFAFA"/>
<path d="M219 167L229.392 181.25H208.608L219 167Z" fill="#CF9595"/>
<path d="M134 66L144.392 80.25H123.608L134 66Z" fill="#DDD6D6"/>
<path d="M122 66L132.392 80.25H111.608L122 66Z" fill="#1B0F33"/>
<defs>
<clipPath id="clip0">
<rect width="64" height="64" fill="white" transform="translate(23 34)"/>
</clipPath>
<clipPath id="clip1">
<rect width="64" height="64" fill="white" transform="translate(148 98)"/>
</clipPath>
</defs>
</svg>
